Coordinates
version=1
nRows=26
nColumns=22
inDegrees=yes

Units are S.I. units (second, meters, Newtons, ...)
If the header above contains a line with 'inDegrees', this indicates whether rotational values are in degrees (yes) or radians (no).

endheader
time	pelvis_tilt	pelvis_list	pelvis_rotation	pelvis_tx	pelvis_ty	pelvis_tz	hip_flexion_r	hip_adduction_r	hip_rotation_r	knee_angle_r	ankle_angle_r	subtalar_angle_r	hip_flexion_l	hip_adduction_l	hip_rotation_l	knee_angle_l	ankle_angle_l	subtalar_angle_l	lumbar_extension	lumbar_bending	lumbar_rotation
      4.04000000	     -2.68493449	     -4.79580752	      6.43723745	     -0.80576713	      1.02042180	      0.30103672	      6.49533710	      4.75971757	    -12.93642156	    -11.98630518	     13.44306800	      9.03089587	      5.95634872	     -8.17625032	     -7.12835137	    -12.87226165	     11.50266355	      3.60158467	     -1.12393364	      2.21508799	     -2.99090300
      4.05000000	     -2.65653963	     -4.72889139	      6.28213077	     -0.80675747	      1.02053907	      0.29995979	      6.64721871	      4.62565585	    -12.76627079	    -12.21413395	     13.27706027	      8.70900178	      5.83205677	     -8.03798563	     -7.42079268	    -12.68588318	     11.48431145	      3.49774278	     -1.16316325	      2.11746658	     -2.75625428
      4.06000000	     -2.62058051	     -4.68286715	      6.11903053	     -0.80769048	      1.02062272	      0.29888837	      6.79683392	      4.51295851	    -12.60526772	    -12.45502899	     13.11776759	      8.28763128	      5.69192782	     -7.91864399	     -7.68542308	    -12.48954908	     11.46296684	      3.34416934	     -1.20612026	      2.04731236	     -2.51590503
      4.07000000	     -2.59545475	     -4.60528312	      5.96645163	     -0.80856406	      1.02067423	      0.29776784	      6.94650722	      4.35710418	    -12.46585953	    -12.69132458	     12.95954001	      8.04455199	      5.57057683	     -7.76162560	     -7.97462839	    -12.31467162	     11.44139292	      3.23474977	     -1.23470263	      1.94419030	     -2.33005009
      4.08000000	     -2.56526095	     -4.54010092	      5.81818505	     -0.80939963	      1.02070989	      0.29665546	      7.08101763	      4.21858042	    -12.32469188	    -12.91130712	     12.82076448	      7.73181591	      5.44407491	     -7.61580038	     -8.22240515	    -12.13762854	     11.40873032	      3.09472965	     -1.26817911	      1.85434986	     -2.15090063
      4.09000000	     -2.53455062	     -4.48349065	      5.69480931	     -0.81018672	      1.02073596	      0.29549816	      7.19375763	      4.08817620	    -12.22303038	    -13.09711188	     12.68488225	      7.41783282	      5.33073252	     -7.47461034	     -8.40934569	    -11.97966680	     11.37148483	      2.95517870	     -1.29600927	      1.77893217	     -2.01068571
      4.10000000	     -2.50921379	     -4.42586416	      5.60383842	     -0.81095542	      1.02075626	      0.29432590	      7.28722775	      3.95848426	    -12.14411869	    -13.23923143	     12.55457452	      7.14377287	      5.24082097	     -7.33194634	     -8.56028070	    -11.83973948	     11.32610666	      2.83646158	     -1.32091312	      1.69524112	     -1.91538346
      4.11000000	     -2.48144605	     -4.39161391	      5.53821241	     -0.81165389	      1.02078034	      0.29312373	      7.35386568	      3.85549141	    -12.10063825	    -13.34237932	     12.43448456	      6.81905032	      5.15984558	     -7.21305306	     -8.65436111	    -11.71474729	     11.28289591	      2.70342437	     -1.33540201	      1.64186705	     -1.84709907
      4.12000000	     -2.46632722	     -4.34376028	      5.50347487	     -0.81232085	      1.02081304	      0.29188637	      7.40498749	      3.73516056	    -12.07469855	    -13.39983089	     12.30734078	      6.64074076	      5.11326391	     -7.07945468	     -8.72381083	    -11.62120255	     11.21620467	      2.64194914	     -1.33467476	      1.57106044	     -1.83349762
      4.13000000	     -2.45271664	     -4.31391518	      5.48828026	     -0.81293203	      1.02085377	      0.29064133	      7.43739357	      3.63419329	    -12.08070917	    -13.42451858	     12.17363066	      6.44351406	      5.07743093	     -6.96642356	     -8.76197691	    -11.53885973	     11.15656525	      2.58050066	     -1.32476307	      1.52070377	     -1.84342456
      4.14000000	     -2.44787552	     -4.30148008	      5.49034691	     -0.81347707	      1.02089656	      0.28938713	      7.45377767	      3.54901113	    -12.12186172	    -13.40600559	     12.02479404	      6.37159169	      5.06646680	     -6.87515818	     -8.79365622	    -11.48309764	     11.12991317	      2.55986485	     -1.29582722	      1.48831366	     -1.86332751
      4.15000000	     -2.44518382	     -4.28543639	      5.50350171	     -0.81397106	      1.02095593	      0.28813575	      7.46302098	      3.46082973	    -12.16793313	    -13.38031839	     11.88130938	      6.15203889	      5.04803605	     -6.77752215	     -8.78321692	    -11.40775525	     11.03688812	      2.51483463	     -1.26261537	      1.45399826	     -1.92701354
      4.16000000	     -2.44743656	     -4.28111297	      5.51341422	     -0.81440945	      1.02101762	      0.28690827	      7.45735427	      3.38462055	    -12.22275900	    -13.31868410	     11.72071856	      6.10372506	      5.05381056	     -6.69966893	     -8.81129042	    -11.37504582	     10.99829957	      2.50363530	     -1.22060480	      1.43151095	     -1.97108575
      4.17000000	     -2.45359241	     -4.27976081	      5.53009357	     -0.81479544	      1.02108834	      0.28569387	      7.44757800	      3.31086871	    -12.28652779	    -13.24902817	     11.56347955	      6.04561787	      5.05666533	     -6.62366103	     -8.81948253	    -11.32810996	     10.93084807	      2.49218426	     -1.17293465	      1.41045285	     -2.02982618
      4.18000000	     -2.45756591	     -4.28655903	      5.55412308	     -0.81513124	      1.02116006	      0.28449040	      7.43122227	      3.24598078	    -12.36666138	    -13.17831537	     11.42812668	      5.92410644	      5.04858471	     -6.55444192	     -8.79532395	    -11.26556121	     10.85050916	      2.44833863	     -1.12824768	      1.40094275	     -2.10384755
      4.19000000	     -2.46447709	     -4.28927389	      5.55184678	     -0.81544086	      1.02122768	      0.28335556	      7.41760300	      3.17929713	    -12.41945005	    -13.11017187	     11.29739380	      5.91482765	      5.05375795	     -6.48815502	     -8.83422261	    -11.23565699	     10.80019471	      2.42870329	     -1.08552022	      1.38274081	     -2.14678531
      4.20000000	     -2.47269901	     -4.29587516	      5.54510697	     -0.81573037	      1.02129110	      0.28225913	      7.40924384	      3.11735084	    -12.47365409	    -13.05257950	     11.18745193	      5.90286721	      5.05245367	     -6.42544862	     -8.85375026	    -11.19193887	     10.72683610	      2.39068582	     -1.04994624	      1.36754214	     -2.18702095
      4.21000000	     -2.48129805	     -4.30208165	      5.52612513	     -0.81598519	      1.02134061	      0.28121487	      7.40584737	      3.05766162	    -12.52385118	    -13.00797403	     11.10125966	      5.89643138	      5.04653628	     -6.36418516	     -8.88631162	    -11.14771485	     10.65670387	      2.33343040	     -1.01823427	      1.34886730	     -2.21857883
      4.22000000	     -2.49175515	     -4.30720723	      5.49378591	     -0.81622810	      1.02137436	      0.28021678	      7.41222446	      2.99780723	    -12.56594748	    -12.98088587	     11.03066899	      5.89461153	      5.03955619	     -6.30342459	     -8.93409591	    -11.10200493	     10.58479385	      2.26178288	     -0.99466143	      1.32655462	     -2.23541434
      4.23000000	     -2.50484355	     -4.30522965	      5.44332151	     -0.81647241	      1.02138614	      0.27928462	      7.43504153	      2.93398097	    -12.57526477	    -12.97988317	     10.99085271	      5.88093906	      5.02486185	     -6.23695971	     -8.99014590	    -11.04349515	     10.49886234	      2.11859998	     -0.98156878	      1.29242909	     -2.24081639
      4.24000000	     -2.51627142	     -4.31334653	      5.39095683	     -0.81668976	      1.02138658	      0.27839880	      7.45828687	      2.88263605	    -12.61582024	    -12.97984397	     10.92318586	      5.87506973	      5.01869387	     -6.18799555	     -9.06661994	    -11.00660784	     10.44089358	      2.06825900	     -0.97597424	      1.26301450	     -2.23602046
      4.25000000	     -2.53052491	     -4.31261751	      5.33090662	     -0.81688793	      1.02137095	      0.27754118	      7.49203032	      2.82354641	    -12.63928274	    -12.99603614	     10.85771032	      5.85141493	      5.00702963	     -6.13103254	     -9.15726811	    -10.95808987	     10.37020998	      2.01745017	     -0.97590112	      1.22462119	     -2.22012970
      4.26000000	     -2.54423059	     -4.30691970	      5.26050376	     -0.81706504	      1.02134325	      0.27674234	      7.53304589	      2.76347256	    -12.65153431	    -13.02599820	     10.78834963	      5.80158209	      4.99081677	     -6.07387765	     -9.25997667	    -10.90899561	     10.29464808	      1.97021539	     -0.98424662	      1.17513491	     -2.20100225
      4.27000000	     -2.55625213	     -4.29690083	      5.18508107	     -0.81722290	      1.02130732	      0.27598747	      7.57740946	      2.70238532	    -12.65891476	    -13.06615426	     10.70911962	      5.72064258	      4.97314765	     -6.01711220	     -9.37166963	    -10.86326478	     10.21323781	      1.93512394	     -1.00193108	      1.11794775	     -2.17695492
      4.28000000	     -2.56535649	     -4.28239352	      5.10535989	     -0.81735226	      1.02126642	      0.27527168	      7.62366853	      2.63976291	    -12.66093094	    -13.11572943	     10.62024908	      5.60149935	      4.95220885	     -5.96031850	     -9.48855273	    -10.82246052	     10.12402944	      1.91377848	     -1.02743989	      1.05366952	     -2.15010107
      4.29000000	     -2.57151319	     -4.26040096	      5.01422762	     -0.81744544	      1.02121733	      0.27462441	      7.66768533	      2.57932932	    -12.61427310	    -13.17172933	     10.54247157	      5.33564936	      4.92037118	     -5.90019605	     -9.60231740	    -10.77429324	     10.03169661	      1.89122198	     -1.06098350	      0.97756027	     -2.12362623
